<?xml version="1.0" encoding="UTF-8"?>
<svg xmlns="http://www.w3.org/2000/svg" version="1.1" viewBox="0 0 625 484.1">
  <defs>
    <style>
      .cls-1 {
        fill: #9b9b9b;
      }
    </style>
  </defs>
  <!-- Generator: Adobe Illustrator 28.7.1, SVG Export Plug-In . SVG Version: 1.2.0 Build 142)  -->
  <g>
    <g id="Ebene_1">
      <g shape-rendering="auto">
        <path class="cls-1" color-rendering="auto" d="M302.6,0c-56.1,0-101.3,45.2-101.3,101.3v63.9H19.2c-10.6,0-19.2,8.5-19.2,19.2v280.6c0,10.6,8.5,19.2,19.2,19.2h586.7c10.6,0,19.1-8.5,19.1-19.2V184.4c0-10.6-8.5-19.2-19.1-19.2h-182.1v-63.9C423.7,45.2,378.5,0,322.4,0h-19.8ZM303.8,14.4h17.3c49.1,0,88.7,39.5,88.7,88.7v62.2h-18.3v-58.8c0-39.9-32.1-72-72-72h-14.1c-39.9,0-72,32.1-72,72v58.8h-18.3v-62.2c0-49.1,39.5-88.7,88.7-88.7h0ZM306.3,44.6h12.3c34.9,0,63,28.1,63,63v57.6h-138.4v-57.6c0-34.9,28.1-63,63-63h0ZM32.2,179.7h560.6c9.6,0,17.4,7.8,17.4,17.4v255.1c0,9.6-7.8,17.4-17.4,17.4H32.2c-9.6,0-17.4-7.8-17.4-17.4v-255c0-9.6,7.8-17.4,17.4-17.4h0Z" image-rendering="auto"/>
      </g>
    </g>
  </g>
</svg>